{"title":"Nautanki Saala (2013) - 720p - 5.1 - DVDRip - Kishan(Wall.e)","uid":8454500,"size":1588766150,"categoryP":"video","categoryS":"hd___movies","magnet":"?xt=urn:btih:9a1397e802682443b23fb36c3d90ec56f315adbb&amp;dn=Nautanki+Saala+%282013%29+-+720p+-+5.1+-+DVDRip+-+Kishan%28Wall.e%29&amp;tr=udp%3A%2F%2Ftracker.openbittorrent.com%3A80&amp;tr=udp%3A%2F%2Fopen.demonii.com%3A1337&amp;tr=udp%3A%2F%2Ftracker.coppersurfer.tk%3A6969&amp;tr=udp%3A%2F%2Fexodus.desync.com%3A6969","seeders":0,"leechers":0,"uploader":"PATEL1","files":23,"time":1368079686,"description":"[center][img]http://img856.imageshack.us/img856/3605/coverqkj.jpg[/img][/center]\n\n[center][code]===================================================\n         Wall.e Release Group Releases\n===================================================\n\n\n\nGeneral\nComplete name                            : Nautanki Saala (2013) - 720p - 5.1 - DVDRip - Kishan(Wall.e).mp4\nFormat                                   : MPEG-4\nFile size                                : 1.46 GiB\nDuration                                 : 2h 28mn\nOverall bit rate                         : 1 408 Kbps\n\nVideo\nID                                       : 1\nFormat                                   : AVC\nFormat/Info                              : Advanced Video Codec\nFormat profile                           : &lt;a class=&quot;__cf_email__&quot; href=&quot;/cdn-cgi/l/email-protection&quot; data-cfemail=&quot;420f232b2c020e716c73&quot;&gt;[email&amp;#160;protected]&lt;/a&gt;&lt;script data-cfhash='f9e31' type=&quot;text/javascript&quot;&gt;\n/* &lt;![CDATA[ */!function(){try{var t=&quot;currentScript&quot;in document?document.currentScript:function(){for(var t=document.getElementsByTagName(&quot;script&quot;),e=t.length;e--;)if(t[e].getAttribute(&quot;data-cfhash&quot;))return t[e]}();if(t&amp;&amp;t.previousSibling){var e,r,n,i,c=t.previousSibling,a=c.getAttribute(&quot;data-cfemail&quot;);if(a){for(e=&quot;&quot;,r=parseInt(a.substr(0,2),16),n=2;a.length-n;n+=2)i=parseInt(a.substr(n,2),16)^r,e+=String.fromCharCode(i);e=document.createTextNode(e),c.parentNode.replaceChild(e,c)}t.parentNode.removeChild(t);}}catch(u){}}()/* ]]&gt; */&lt;/script&gt;\nFormat settings, CABAC                   : Yes\nFormat settings, ReFrames                : 4 frames\nCodec ID                                 : avc1\nCodec ID/Info                            : Advanced Video Coding\nDuration                                 : 2h 28mn\nBit rate mode                            : Variable\nBit rate                                 : 950 Kbps\nWidth                                    : 1 280 pixels\nHeight                                   : 544 pixels\nDisplay aspect ratio                     : 2.35:1\nFrame rate mode                          : Variable\nFrame rate                               : 23.976 fps\nMinimum frame rate                       : 23.810 fps\nMaximum frame rate                       : 24.390 fps\nColor space                              : YUV\nChroma subsampling                       : 4:2:0\nBit depth                                : 8 bits\nScan type                                : Progressive\nBits/(Pixel*Frame)                       : 0.057\nStream size                              : 1 014 MiB (68%)\nWriting library                          : x264 core 120\n\nAudio\nID                                       : 2\nFormat                                   : AC-3\nFormat/Info                              : Audio Coding 3\nMode extension                           : CM (complete main)\nFormat settings, Endianness              : Big\nCodec ID                                 : ac-3\nDuration                                 : 2h 28mn\nBit rate mode                            : Constant\nBit rate                                 : 448 Kbps\nChannel(s)                               : 6 channels\nChannel positions                        : Front: L C R, Side: L R, LFE\nSampling rate                            : 48.0 KHz\nBit depth                                : 16 bits\nCompression mode                         : Lossy\nDelay relative to video                  : 83ms\nStream size                              : 475 MiB (32%)\nLanguage                                 : Hindi\n\n\n[/code][/center]\n\n\n\n\n[center]Ripper Note\nADDED BEHIND THE SCENES[/center]\n\n\n\n\n\n\n\nHere For Sample[/url]\n[/center]\n\n\n\n\n[center]Thanks to Team DDR for source[/center]","torrent":{"xt":"urn:btih:9a1397e802682443b23fb36c3d90ec56f315adbb","amp;dn":"Nautanki+Saala+%282013%29+-+720p+-+5.1+-+DVDRip+-+Kishan%28Wall.e%29","amp;tr":["udp%3A%2F%2Ftracker.openbittorrent.com%3A80","udp%3A%2F%2Fopen.demonii.com%3A1337","udp%3A%2F%2Ftracker.coppersurfer.tk%3A6969","udp%3A%2F%2Fexodus.desync.com%3A6969"],"infoHash":"9a1397e802682443b23fb36c3d90ec56f315adbb","infoHashBuffer":{"type":"Buffer","data":[154,19,151,232,2,104,36,67,178,63,179,108,61,144,236,86,243,21,173,187]},"announce":[],"urlList":[]}}